<?xml version="1.0" encoding="iso-8859-1"?>
<!-- Generator: Adobe Illustrator 18.0.0, SVG Export Plug-In . SVG Version: 6.00 Build 0)  -->
<!DOCTYPE svg PUBLIC "-//W3C//DTD SVG 1.1//EN" "http://www.w3.org/Graphics/SVG/1.1/DTD/svg11.dtd">
<svg version="1.1" id="Capa_1" xmlns="http://www.w3.org/2000/svg" xmlns:xlink="http://www.w3.org/1999/xlink" x="0px" y="0px"
	 viewBox="0 0 60 60" style="enable-background:new 0 0 60 60;" xml:space="preserve">
<g>
	<path d="M45.577,37.552c-0.267-0.032-0.538-0.052-0.813-0.052c-0.489,0-0.965,0.053-1.425,0.149
		c-4.597,0.592-8.832,3.552-12.068,8.494l-0.466,0.711l0.359,0.548c3.635,5.552,8.529,8.609,13.783,8.609
		c5.253,0,10.148-3.058,13.783-8.609l0.466-0.711l-0.359-0.548C55.323,40.777,50.631,37.749,45.577,37.552z M49.673,44.409
		c0,2.707-2.202,4.909-4.909,4.909s-4.909-2.202-4.909-4.909c0-2.345,1.655-4.305,3.856-4.789c0.445-0.053,0.892-0.087,1.343-0.087
		c0.02,0,0.04,0.002,0.06,0.002C47.655,39.718,49.673,41.822,49.673,44.409z M44.947,54.012c-4.387,0-8.538-2.537-11.744-7.161
		c1.559-2.287,3.348-4.069,5.281-5.305c-0.4,0.874-0.629,1.842-0.629,2.864c0,3.81,3.1,6.909,6.909,6.909s6.909-3.1,6.909-6.909
		c0-1.216-0.318-2.358-0.872-3.352c2.204,1.207,4.242,3.107,5.996,5.638C53.577,51.418,49.383,54.012,44.947,54.012z"/>
	<path d="M26.515,10.5l-5-7H0v53h36.123c-2.802-1.689-5.339-4.199-7.47-7.454l-1.436-2.192l1.543-2.354
		c4.207-6.427,9.993-9.966,16.292-9.966c5.653,0,10.889,2.86,14.946,8.091V19.5v-2v-7H26.515z M58,17.5H31.515l-3.571-5H58V17.5z"/>
</g>
<g>
</g>
<g>
</g>
<g>
</g>
<g>
</g>
<g>
</g>
<g>
</g>
<g>
</g>
<g>
</g>
<g>
</g>
<g>
</g>
<g>
</g>
<g>
</g>
<g>
</g>
<g>
</g>
<g>
</g>
</svg>
